<svg width="20" height="20" viewBox="0 0 20 20" fill="none" xmlns="http://www.w3.org/2000/svg">
<rect width="20" height="20" rx="2" fill="#949CF7"/>
<path fill-rule="evenodd" clip-rule="evenodd" d="M4.00002 4H16V8H15C14.76 6.9 14.88 6.02002 14.5 5.67997C14.13 5.35 13.2 5 12 5H11V14C11 14.8 11.12 15.05 11.37 15.2401C11.62 15.4301 12.1601 15.5601 13 15.62V16H6.98002V15.62C7.85004 15.55 8.40004 15.4101 8.60999 15.18C8.83001 14.96 9.00004 14.89 9.00004 14V5H8.00004C6.85999 5 5.85005 5.35 5.44005 5.67997C5.02002 6.00995 5.20997 6.89003 5 8H4L4.00002 4Z" fill="#12185E"/>
</svg>
